<svg width="40" height="42" viewBox="0 0 40 42" fill="none" xmlns="http://www.w3.org/2000/svg">
<rect x="1" y="1" width="39" height="41" rx="9" fill="#EEEEEE" fill-opacity="0.1"/>
<g filter="url(#filter0_d_2003_7)">
<mask id="path-2-inside-1_2003_7" fill="white">
<path d="M10.1289 33.7031C7.91406 33.5508 6.20898 32.9883 5.01367 32.0156C3.56055 30.8203 2.83398 29.0801 2.83398 26.7949V18.6035L10.1289 12.9609C12.3438 13.1133 14.0488 13.6758 15.2441 14.6484C16.6973 15.832 17.4238 17.5723 17.4238 19.8691L6.61328 28.6055C6.82422 29.1914 7.11719 29.6426 7.49219 29.959C8.25391 30.6035 9.12109 30.9258 10.0938 30.9258C11.1133 30.9258 12.0391 30.5684 12.8711 29.8535C13.5625 29.2559 13.9082 28.2363 13.9082 26.7949L17.248 25.2129H17.4238V28.0605L10.1289 33.7031ZM6.34961 26.0215L13.9082 19.8867C13.9082 18.4102 13.5215 17.3496 12.748 16.7051C11.9863 16.0605 11.1133 15.7383 10.1289 15.7383C8.99219 15.7383 8.07812 16.0957 7.38672 16.8105C6.69531 17.5254 6.34961 18.5449 6.34961 19.8691V26.0215ZM23.5762 33.7031V7.33594L26.916 5.75391H27.0918V20.9062L36.3906 12.9609H36.5664L38.1484 14.3848L33.7012 18.1641C34.5684 18.4453 35.3301 18.8438 35.9863 19.3594C37.4395 20.5312 38.166 22.2715 38.166 24.5801V32.1211L34.8262 33.7031H34.6504V24.5801C34.6504 23.1738 34.2695 22.1191 33.5078 21.416C32.8047 20.7715 31.9258 20.4492 30.8711 20.4492C29.7461 20.4492 28.832 20.8066 28.1289 21.5215C27.4375 22.2363 27.0918 23.2559 27.0918 24.5801V32.1211L23.752 33.7031H23.5762Z"/>
</mask>
<path d="M10.1289 33.7031C7.91406 33.5508 6.20898 32.9883 5.01367 32.0156C3.56055 30.8203 2.83398 29.0801 2.83398 26.7949V18.6035L10.1289 12.9609C12.3438 13.1133 14.0488 13.6758 15.2441 14.6484C16.6973 15.832 17.4238 17.5723 17.4238 19.8691L6.61328 28.6055C6.82422 29.1914 7.11719 29.6426 7.49219 29.959C8.25391 30.6035 9.12109 30.9258 10.0938 30.9258C11.1133 30.9258 12.0391 30.5684 12.8711 29.8535C13.5625 29.2559 13.9082 28.2363 13.9082 26.7949L17.248 25.2129H17.4238V28.0605L10.1289 33.7031ZM6.34961 26.0215L13.9082 19.8867C13.9082 18.4102 13.5215 17.3496 12.748 16.7051C11.9863 16.0605 11.1133 15.7383 10.1289 15.7383C8.99219 15.7383 8.07812 16.0957 7.38672 16.8105C6.69531 17.5254 6.34961 18.5449 6.34961 19.8691V26.0215ZM23.5762 33.7031V7.33594L26.916 5.75391H27.0918V20.9062L36.3906 12.9609H36.5664L38.1484 14.3848L33.7012 18.1641C34.5684 18.4453 35.3301 18.8438 35.9863 19.3594C37.4395 20.5312 38.166 22.2715 38.166 24.5801V32.1211L34.8262 33.7031H34.6504V24.5801C34.6504 23.1738 34.2695 22.1191 33.5078 21.416C32.8047 20.7715 31.9258 20.4492 30.8711 20.4492C29.7461 20.4492 28.832 20.8066 28.1289 21.5215C27.4375 22.2363 27.0918 23.2559 27.0918 24.5801V32.1211L23.752 33.7031H23.5762Z" fill="#EEEEEE"/>
<path d="M10.1289 33.7031L10.0603 34.7008L10.4398 34.7269L10.7407 34.4941L10.1289 33.7031ZM5.01367 32.0156L4.37839 32.7879L4.38251 32.7913L5.01367 32.0156ZM2.83398 18.6035L2.22216 17.8125L1.83398 18.1128V18.6035H2.83398ZM10.1289 12.9609L10.1975 11.9633L9.818 11.9372L9.51708 12.1699L10.1289 12.9609ZM15.2441 14.6484L15.8757 13.8731L15.8753 13.8728L15.2441 14.6484ZM17.4238 19.8691L18.0524 20.6469L18.4238 20.3467V19.8691H17.4238ZM6.61328 28.6055L5.98474 27.8277L5.43143 28.2748L5.67239 28.9442L6.61328 28.6055ZM7.49219 29.959L8.13813 29.1956L8.13706 29.1947L7.49219 29.959ZM12.8711 29.8535L13.5228 30.612L13.525 30.6101L12.8711 29.8535ZM13.9082 26.7949L13.4801 25.8912L12.9082 26.1621V26.7949H13.9082ZM17.248 25.2129V24.2129H17.0232L16.82 24.3092L17.248 25.2129ZM17.4238 25.2129H18.4238V24.2129H17.4238V25.2129ZM17.4238 28.0605L18.0357 28.8515L18.4238 28.5513V28.0605H17.4238ZM6.34961 26.0215H5.34961V28.121L6.97979 26.7979L6.34961 26.0215ZM13.9082 19.8867L14.5384 20.6632L14.9082 20.363V19.8867H13.9082ZM12.748 16.7051L12.1021 17.4685L12.1079 17.4733L12.748 16.7051ZM10.1975 32.7055C8.10162 32.5613 6.6236 32.0364 5.64484 31.24L4.38251 32.7913C5.79437 33.9401 7.7265 34.5402 10.0603 34.7008L10.1975 32.7055ZM5.64894 31.2433C4.47626 30.2787 3.83398 28.8517 3.83398 26.7949H1.83398C1.83398 29.3085 2.64483 31.3619 4.3784 32.7879L5.64894 31.2433ZM3.83398 26.7949V18.6035H1.83398V26.7949H3.83398ZM3.44581 19.3945L10.7407 13.7519L9.51708 12.1699L2.22216 17.8125L3.44581 19.3945ZM10.0603 13.9586C12.1562 14.1027 13.6342 14.6276 14.613 15.4241L15.8753 13.8728C14.4634 12.7239 12.5313 12.1238 10.1975 11.9633L10.0603 13.9586ZM14.6126 15.4238C15.7803 16.3749 16.4238 17.7984 16.4238 19.8691H18.4238C18.4238 17.3462 17.6142 15.2892 15.8757 13.8731L14.6126 15.4238ZM16.7953 19.0914L5.98474 27.8277L7.24182 29.3832L18.0524 20.6469L16.7953 19.0914ZM5.67239 28.9442C5.92712 29.6517 6.30636 30.2668 6.84732 30.7233L8.13706 29.1947C7.92801 29.0183 7.72132 28.7311 7.55417 28.2667L5.67239 28.9442ZM6.84625 30.7224C7.78342 31.5154 8.87797 31.9258 10.0938 31.9258V29.9258C9.36421 29.9258 8.72439 29.6917 8.13813 29.1956L6.84625 30.7224ZM10.0938 31.9258C11.3713 31.9258 12.5243 31.4699 13.5228 30.612L12.2194 29.095C11.5539 29.6668 10.8553 29.9258 10.0938 29.9258V31.9258ZM13.525 30.6101C14.5366 29.7356 14.9082 28.3607 14.9082 26.7949H12.9082C12.9082 28.112 12.5884 28.7761 12.2171 29.097L13.525 30.6101ZM14.3363 27.6987L17.6761 26.1166L16.82 24.3092L13.4801 25.8912L14.3363 27.6987ZM17.248 26.2129H17.4238V24.2129H17.248V26.2129ZM16.4238 25.2129V28.0605H18.4238V25.2129H16.4238ZM16.812 27.2696L9.51708 32.9121L10.7407 34.4941L18.0357 28.8515L16.812 27.2696ZM6.97979 26.7979L14.5384 20.6632L13.278 19.1103L5.71942 25.245L6.97979 26.7979ZM14.9082 19.8867C14.9082 18.2556 14.4801 16.8467 13.3882 15.9369L12.1079 17.4733C12.5629 17.8525 12.9082 18.5647 12.9082 19.8867H14.9082ZM13.394 15.9417C12.4544 15.1467 11.3533 14.7383 10.1289 14.7383V16.7383C10.8732 16.7383 11.5182 16.9744 12.1021 17.4685L13.394 15.9417ZM10.1289 14.7383C8.76352 14.7383 7.57526 15.1772 6.66793 16.1153L8.10551 17.5058C8.58099 17.0142 9.22086 16.7383 10.1289 16.7383V14.7383ZM6.66793 16.1153C5.74281 17.0718 5.34961 18.3739 5.34961 19.8691H7.34961C7.34961 18.7159 7.64782 17.979 8.10551 17.5058L6.66793 16.1153ZM5.34961 19.8691V26.0215H7.34961V19.8691H5.34961ZM23.5762 33.7031H22.5762V34.7031H23.5762V33.7031ZM23.5762 7.33594L23.1481 6.4322L22.5762 6.70311V7.33594H23.5762ZM26.916 5.75391V4.75391H26.6911L26.4879 4.85017L26.916 5.75391ZM27.0918 5.75391H28.0918V4.75391H27.0918V5.75391ZM27.0918 20.9062H26.0918V23.076L27.7414 21.6665L27.0918 20.9062ZM36.3906 12.9609V11.9609H36.0216L35.741 12.2007L36.3906 12.9609ZM36.5664 12.9609L37.2354 12.2176L36.9501 11.9609H36.5664V12.9609ZM38.1484 14.3848L38.796 15.1468L39.6673 14.4064L38.8174 13.6415L38.1484 14.3848ZM33.7012 18.1641L33.0536 17.402L31.6881 18.5625L33.3927 19.1153L33.7012 18.1641ZM35.9863 19.3594L36.6141 18.5809L36.6041 18.5731L35.9863 19.3594ZM38.166 32.1211L38.5941 33.0248L39.166 32.7539V32.1211H38.166ZM34.8262 33.7031V34.7031H35.051L35.2543 34.6069L34.8262 33.7031ZM34.6504 33.7031H33.6504V34.7031H34.6504V33.7031ZM33.5078 21.416L34.1861 20.6812L34.1835 20.6789L33.5078 21.416ZM28.1289 21.5215L27.416 20.8202L27.4101 20.8263L28.1289 21.5215ZM27.0918 32.1211L27.5199 33.0248L28.0918 32.7539V32.1211H27.0918ZM23.752 33.7031V34.7031H23.9768L24.18 34.6069L23.752 33.7031ZM24.5762 33.7031V7.33594H22.5762V33.7031H24.5762ZM24.0043 8.23968L27.3441 6.65764L26.4879 4.85017L23.1481 6.4322L24.0043 8.23968ZM26.916 6.75391H27.0918V4.75391H26.916V6.75391ZM26.0918 5.75391V20.9062H28.0918V5.75391H26.0918ZM27.7414 21.6665L37.0402 13.7212L35.741 12.2007L26.4422 20.146L27.7414 21.6665ZM36.3906 13.9609H36.5664V11.9609H36.3906V13.9609ZM35.8974 13.7042L37.4795 15.1281L38.8174 13.6415L37.2354 12.2176L35.8974 13.7042ZM37.5009 13.6228L33.0536 17.402L34.3487 18.9261L38.796 15.1468L37.5009 13.6228ZM33.3927 19.1153C34.1582 19.3636 34.813 19.7092 35.3685 20.1457L36.6041 18.5731C35.8471 17.9783 34.9785 17.5271 34.0097 17.2128L33.3927 19.1153ZM35.3586 20.1378C36.5212 21.0754 37.166 22.4953 37.166 24.5801H39.166C39.166 22.0477 38.3577 19.9871 36.6141 18.581L35.3586 20.1378ZM37.166 24.5801V32.1211H39.166V24.5801H37.166ZM37.7379 31.2174L34.3981 32.7994L35.2543 34.6069L38.5941 33.0248L37.7379 31.2174ZM34.8262 32.7031H34.6504V34.7031H34.8262V32.7031ZM35.6504 33.7031V24.5801H33.6504V33.7031H35.6504ZM35.6504 24.5801C35.6504 22.9982 35.2182 21.634 34.1861 20.6812L32.8295 22.1508C33.3208 22.6043 33.6504 23.3494 33.6504 24.5801H35.6504ZM34.1835 20.6789C33.2759 19.8469 32.1473 19.4492 30.8711 19.4492V21.4492C31.7042 21.4492 32.3335 21.6961 32.8321 22.1532L34.1835 20.6789ZM30.8711 19.4492C29.5138 19.4492 28.3308 19.8902 27.416 20.8202L28.8418 22.2227C29.3333 21.7231 29.9784 21.4492 30.8711 21.4492V19.4492ZM27.4101 20.8263C26.485 21.7827 26.0918 23.0849 26.0918 24.5801H28.0918C28.0918 23.4269 28.39 22.6899 28.8477 22.2167L27.4101 20.8263ZM26.0918 24.5801V32.1211H28.0918V24.5801H26.0918ZM26.6637 31.2174L23.3239 32.7994L24.18 34.6069L27.5199 33.0248L26.6637 31.2174ZM23.752 32.7031H23.5762V34.7031H23.752V32.7031Z" fill="#888888" mask="url(#path-2-inside-1_2003_7)"/>
</g>
<defs>
<filter id="filter0_d_2003_7" x="0.833984" y="5.75391" width="37.332" height="29.9492" filterUnits="userSpaceOnUse" color-interpolation-filters="sRGB">
<feFlood flood-opacity="0" result="BackgroundImageFix"/>
<feColorMatrix in="SourceAlpha" type="matrix" values="0 0 0 0 0 0 0 0 0 0 0 0 0 0 0 0 0 0 127 0" result="hardAlpha"/>
<feOffset dx="-1" dy="1"/>
<feGaussianBlur stdDeviation="0.5"/>
<feComposite in2="hardAlpha" operator="out"/>
<feColorMatrix type="matrix" values="0 0 0 0 0 0 0 0 0 0 0 0 0 0 0 0 0 0 0.7 0"/>
<feBlend mode="normal" in2="BackgroundImageFix" result="effect1_dropShadow_2003_7"/>
<feBlend mode="normal" in="SourceGraphic" in2="effect1_dropShadow_2003_7" result="shape"/>
</filter>
</defs>
</svg>
