<svg width="39" height="42" viewBox="0 0 39 42" fill="none" xmlns="http://www.w3.org/2000/svg">
<rect y="1" width="39" height="41" rx="9" fill="#EEEEEE"/>
<mask id="path-2-inside-1_2003_7" fill="white">
<path d="M9.70508 33.6641C7.61328 33.5202 6.00293 32.9889 4.87402 32.0703C3.50163 30.9414 2.81543 29.2979 2.81543 27.1396V19.4033L9.70508 14.0742C11.7969 14.2181 13.4072 14.7493 14.5361 15.668C15.9085 16.7858 16.5947 18.4294 16.5947 20.5986L6.38477 28.8496C6.58398 29.403 6.86068 29.8291 7.21484 30.1279C7.93424 30.7367 8.75326 31.041 9.67188 31.041C10.6348 31.041 11.5091 30.7035 12.2949 30.0283C12.9479 29.4639 13.2744 28.501 13.2744 27.1396L16.4287 25.6455H16.5947V28.335L9.70508 33.6641ZM6.13574 26.4092L13.2744 20.6152C13.2744 19.2207 12.9092 18.2191 12.1787 17.6104C11.4593 17.0016 10.6348 16.6973 9.70508 16.6973C8.63151 16.6973 7.76823 17.0348 7.11523 17.71C6.46224 18.3851 6.13574 19.348 6.13574 20.5986V26.4092ZM22.4053 33.6641V8.76172L25.5596 7.26758H25.7256V21.5781L34.5078 14.0742H34.6738L36.168 15.4189L31.9678 18.9883C32.7868 19.2539 33.5062 19.6302 34.126 20.1172C35.4984 21.224 36.1846 22.8675 36.1846 25.0479V32.1699L33.0303 33.6641H32.8643V25.0479C32.8643 23.7197 32.5046 22.7236 31.7852 22.0596C31.1211 21.4508 30.291 21.1465 29.2949 21.1465C28.2324 21.1465 27.3691 21.484 26.7051 22.1592C26.0521 22.8343 25.7256 23.7972 25.7256 25.0479V32.1699L22.5713 33.6641H22.4053Z"/>
</mask>
<path d="M9.70508 33.6641C7.61328 33.5202 6.00293 32.9889 4.87402 32.0703C3.50163 30.9414 2.81543 29.2979 2.81543 27.1396V19.4033L9.70508 14.0742C11.7969 14.2181 13.4072 14.7493 14.5361 15.668C15.9085 16.7858 16.5947 18.4294 16.5947 20.5986L6.38477 28.8496C6.58398 29.403 6.86068 29.8291 7.21484 30.1279C7.93424 30.7367 8.75326 31.041 9.67188 31.041C10.6348 31.041 11.5091 30.7035 12.2949 30.0283C12.9479 29.4639 13.2744 28.501 13.2744 27.1396L16.4287 25.6455H16.5947V28.335L9.70508 33.6641ZM6.13574 26.4092L13.2744 20.6152C13.2744 19.2207 12.9092 18.2191 12.1787 17.6104C11.4593 17.0016 10.6348 16.6973 9.70508 16.6973C8.63151 16.6973 7.76823 17.0348 7.11523 17.71C6.46224 18.3851 6.13574 19.348 6.13574 20.5986V26.4092ZM22.4053 33.6641V8.76172L25.5596 7.26758H25.7256V21.5781L34.5078 14.0742H34.6738L36.168 15.4189L31.9678 18.9883C32.7868 19.2539 33.5062 19.6302 34.126 20.1172C35.4984 21.224 36.1846 22.8675 36.1846 25.0479V32.1699L33.0303 33.6641H32.8643V25.0479C32.8643 23.7197 32.5046 22.7236 31.7852 22.0596C31.1211 21.4508 30.291 21.1465 29.2949 21.1465C28.2324 21.1465 27.3691 21.484 26.7051 22.1592C26.0521 22.8343 25.7256 23.7972 25.7256 25.0479V32.1699L22.5713 33.6641H22.4053Z" fill="#4D4D4D"/>
<path d="M9.70508 33.6641L9.63646 34.6617L10.016 34.6878L10.3169 34.4551L9.70508 33.6641ZM4.87402 32.0703L4.23874 32.8426L4.24286 32.846L4.87402 32.0703ZM2.81543 19.4033L2.2036 18.6123L1.81543 18.9126V19.4033H2.81543ZM9.70508 14.0742L9.7737 13.0766L9.39417 13.0505L9.09325 13.2832L9.70508 14.0742ZM14.5361 15.668L15.1677 14.8926L15.1673 14.8923L14.5361 15.668ZM16.5947 20.5986L17.2233 21.3764L17.5947 21.0762V20.5986H16.5947ZM6.38477 28.8496L5.75622 28.0718L5.20291 28.519L5.44388 29.1883L6.38477 28.8496ZM7.21484 30.1279L7.86079 29.3645L7.85971 29.3636L7.21484 30.1279ZM12.2949 30.0283L12.9466 30.7868L12.9489 30.7849L12.2949 30.0283ZM13.2744 27.1396L12.8463 26.2359L12.2744 26.5068V27.1396H13.2744ZM16.4287 25.6455V24.6455H16.2038L16.0006 24.7418L16.4287 25.6455ZM16.5947 25.6455H17.5947V24.6455H16.5947V25.6455ZM16.5947 28.335L17.2066 29.126L17.5947 28.8257V28.335H16.5947ZM6.13574 26.4092H5.13574V28.5087L6.76593 27.1856L6.13574 26.4092ZM13.2744 20.6152L13.9046 21.3917L14.2744 21.0915V20.6152H13.2744ZM12.1787 17.6104L11.5328 18.3738L11.5385 18.3786L12.1787 17.6104ZM9.7737 32.6664C7.80084 32.5307 6.41754 32.0371 5.50519 31.2947L4.24286 32.846C5.58832 33.9408 7.42572 34.5096 9.63646 34.6617L9.7737 32.6664ZM5.50929 31.298C4.41734 30.3998 3.81543 29.0695 3.81543 27.1396H1.81543C1.81543 29.5262 2.58592 31.483 4.23875 32.8426L5.50929 31.298ZM3.81543 27.1396V19.4033H1.81543V27.1396H3.81543ZM3.42726 20.1943L10.3169 14.8652L9.09325 13.2832L2.2036 18.6123L3.42726 20.1943ZM9.63646 15.0719C11.6093 15.2076 12.9926 15.7012 13.905 16.4436L15.1673 14.8923C13.8218 13.7975 11.9844 13.2286 9.7737 13.0766L9.63646 15.0719ZM13.9046 16.4433C14.9916 17.3287 15.5947 18.6555 15.5947 20.5986H17.5947C17.5947 18.2033 16.8255 16.2429 15.1677 14.8926L13.9046 16.4433ZM15.9662 19.8209L5.75622 28.0718L7.01331 29.6274L17.2233 21.3764L15.9662 19.8209ZM5.44388 29.1883C5.68688 29.8633 6.04985 30.4534 6.56997 30.8922L7.85971 29.3636C7.6715 29.2048 7.48109 28.9427 7.32565 28.5109L5.44388 29.1883ZM6.5689 30.8913C7.46376 31.6485 8.51014 32.041 9.67188 32.041V30.041C8.99637 30.041 8.40473 29.8248 7.86079 29.3645L6.5689 30.8913ZM9.67188 32.041C10.8928 32.041 11.9943 31.605 12.9466 30.7868L11.6433 29.2698C11.0239 29.8019 10.3767 30.041 9.67188 30.041V32.041ZM12.9489 30.7849C13.922 29.9437 14.2744 28.6253 14.2744 27.1396H12.2744C12.2744 28.3766 11.9738 28.9841 11.641 29.2718L12.9489 30.7849ZM13.7025 28.0434L16.8568 26.5492L16.0006 24.7418L12.8463 26.2359L13.7025 28.0434ZM16.4287 26.6455H16.5947V24.6455H16.4287V26.6455ZM15.5947 25.6455V28.335H17.5947V25.6455H15.5947ZM15.9829 27.544L9.09325 32.8731L10.3169 34.4551L17.2066 29.126L15.9829 27.544ZM6.76593 27.1856L13.9046 21.3917L12.6442 19.8388L5.50556 25.6327L6.76593 27.1856ZM14.2744 20.6152C14.2744 19.0661 13.8678 17.7162 12.8189 16.8421L11.5385 18.3786C11.9506 18.722 12.2744 19.3753 12.2744 20.6152H14.2744ZM12.8247 16.847C11.9274 16.0877 10.8748 15.6973 9.70508 15.6973V17.6973C10.3947 17.6973 10.9912 17.9155 11.5328 18.3737L12.8247 16.847ZM9.70508 15.6973C8.40284 15.6973 7.26537 16.1164 6.39644 17.0147L7.83403 18.4052C8.27109 17.9533 8.86018 17.6973 9.70508 17.6973V15.6973ZM6.39644 17.0147C5.50974 17.9315 5.13574 19.177 5.13574 20.5986H7.13574C7.13574 19.519 7.41474 18.8387 7.83403 18.4052L6.39644 17.0147ZM5.13574 20.5986V26.4092H7.13574V20.5986H5.13574ZM22.4053 33.6641H21.4053V34.6641H22.4053V33.6641ZM22.4053 8.76172L21.9772 7.85798L21.4053 8.12889V8.76172H22.4053ZM25.5596 7.26758V6.26758H25.3347L25.1315 6.36384L25.5596 7.26758ZM25.7256 7.26758H26.7256V6.26758H25.7256V7.26758ZM25.7256 21.5781H24.7256V23.7479L26.3752 22.3384L25.7256 21.5781ZM34.5078 14.0742V13.0742H34.1388L33.8582 13.3139L34.5078 14.0742ZM34.6738 14.0742L35.3428 13.3309L35.0576 13.0742H34.6738V14.0742ZM36.168 15.4189L36.8155 16.181L37.6868 15.4405L36.8369 14.6757L36.168 15.4189ZM31.9678 18.9883L31.3202 18.2263L29.9547 19.3867L31.6593 19.9395L31.9678 18.9883ZM34.126 20.1172L34.7538 19.3387L34.7438 19.3309L34.126 20.1172ZM36.1846 32.1699L36.6127 33.0737L37.1846 32.8028V32.1699H36.1846ZM33.0303 33.6641V34.6641H33.2551L33.4584 34.5678L33.0303 33.6641ZM32.8643 33.6641H31.8643V34.6641H32.8643V33.6641ZM31.7852 22.0596L32.4634 21.3248L32.4609 21.3224L31.7852 22.0596ZM26.7051 22.1592L25.9921 21.4579L25.9863 21.464L26.7051 22.1592ZM25.7256 32.1699L26.1537 33.0737L26.7256 32.8028V32.1699H25.7256ZM22.5713 33.6641V34.6641H22.7962L22.9994 34.5678L22.5713 33.6641ZM23.4053 33.6641V8.76172H21.4053V33.6641H23.4053ZM22.8334 9.66546L25.9877 8.17132L25.1315 6.36384L21.9772 7.85798L22.8334 9.66546ZM25.5596 8.26758H25.7256V6.26758H25.5596V8.26758ZM24.7256 7.26758V21.5781H26.7256V7.26758H24.7256ZM26.3752 22.3384L35.1574 14.8345L33.8582 13.3139L25.076 20.8179L26.3752 22.3384ZM34.5078 15.0742H34.6738V13.0742H34.5078V15.0742ZM34.0049 14.8175L35.499 16.1622L36.8369 14.6757L35.3428 13.3309L34.0049 14.8175ZM35.5204 14.6569L31.3202 18.2263L32.6153 19.7503L36.8155 16.181L35.5204 14.6569ZM31.6593 19.9395C32.3766 20.1722 32.9891 20.4957 33.5082 20.9035L34.7438 19.3309C34.0232 18.7647 33.197 18.3357 32.2763 18.0371L31.6593 19.9395ZM33.4982 20.8956C34.5802 21.7681 35.1846 23.0913 35.1846 25.0479H37.1846C37.1846 22.6437 36.4166 20.6798 34.7537 19.3388L33.4982 20.8956ZM35.1846 25.0479V32.1699H37.1846V25.0479H35.1846ZM35.7565 31.2662L32.6022 32.7603L33.4584 34.5678L36.6127 33.0737L35.7565 31.2662ZM33.0303 32.6641H32.8643V34.6641H33.0303V32.6641ZM33.8643 33.6641V25.0479H31.8643V33.6641H33.8643ZM33.8643 25.0479C33.8643 23.5441 33.4533 22.2385 32.4634 21.3248L31.1069 22.7944C31.5558 23.2088 31.8643 23.8953 31.8643 25.0479H33.8643ZM32.4609 21.3224C31.5923 20.5262 30.5126 20.1465 29.2949 20.1465V22.1465C30.0695 22.1465 30.6499 22.3755 31.1094 22.7967L32.4609 21.3224ZM29.2949 20.1465C28.0002 20.1465 26.8679 20.5676 25.9922 21.4579L27.418 22.8604C27.8704 22.4005 28.4647 22.1465 29.2949 22.1465V20.1465ZM25.9863 21.464C25.0996 22.3807 24.7256 23.6262 24.7256 25.0479H26.7256C26.7256 23.9682 27.0046 23.2879 27.4239 22.8544L25.9863 21.464ZM24.7256 25.0479V32.1699H26.7256V25.0479H24.7256ZM25.2975 31.2662L22.1432 32.7603L22.9994 34.5678L26.1537 33.0737L25.2975 31.2662ZM22.5713 32.6641H22.4053V34.6641H22.5713V32.6641Z" fill="#666666" mask="url(#path-2-inside-1_2003_7)"/>
</svg>
