<svg width="35" height="27" viewBox="0 0 35 27" fill="none" xmlns="http://www.w3.org/2000/svg">
<mask id="path-1-inside-1_2001_2" fill="white">
<path d="M7.70508 26.6641C5.61328 26.5202 4.00293 25.9889 2.87402 25.0703C1.50163 23.9414 0.81543 22.2979 0.81543 20.1396V12.4033L7.70508 7.07422C9.79688 7.2181 11.4072 7.74935 12.5361 8.66797C13.9085 9.78581 14.5947 11.4294 14.5947 13.5986L4.38477 21.8496C4.58398 22.403 4.86068 22.8291 5.21484 23.1279C5.93424 23.7367 6.75326 24.041 7.67188 24.041C8.63477 24.041 9.50911 23.7035 10.2949 23.0283C10.9479 22.4639 11.2744 21.501 11.2744 20.1396L14.4287 18.6455H14.5947V21.335L7.70508 26.6641ZM4.13574 19.4092L11.2744 13.6152C11.2744 12.2207 10.9092 11.2191 10.1787 10.6104C9.45931 10.0016 8.63477 9.69727 7.70508 9.69727C6.63151 9.69727 5.76823 10.0348 5.11523 10.71C4.46224 11.3851 4.13574 12.348 4.13574 13.5986V19.4092ZM20.4053 26.6641V1.76172L23.5596 0.267578H23.7256V14.5781L32.5078 7.07422H32.6738L34.168 8.41895L29.9678 11.9883C30.7868 12.2539 31.5062 12.6302 32.126 13.1172C33.4984 14.224 34.1846 15.8675 34.1846 18.0479V25.1699L31.0303 26.6641H30.8643V18.0479C30.8643 16.7197 30.5046 15.7236 29.7852 15.0596C29.1211 14.4508 28.291 14.1465 27.2949 14.1465C26.2324 14.1465 25.3691 14.484 24.7051 15.1592C24.0521 15.8343 23.7256 16.7972 23.7256 18.0479V25.1699L20.5713 26.6641H20.4053Z"/>
</mask>
<path d="M7.70508 26.6641C5.61328 26.5202 4.00293 25.9889 2.87402 25.0703C1.50163 23.9414 0.81543 22.2979 0.81543 20.1396V12.4033L7.70508 7.07422C9.79688 7.2181 11.4072 7.74935 12.5361 8.66797C13.9085 9.78581 14.5947 11.4294 14.5947 13.5986L4.38477 21.8496C4.58398 22.403 4.86068 22.8291 5.21484 23.1279C5.93424 23.7367 6.75326 24.041 7.67188 24.041C8.63477 24.041 9.50911 23.7035 10.2949 23.0283C10.9479 22.4639 11.2744 21.501 11.2744 20.1396L14.4287 18.6455H14.5947V21.335L7.70508 26.6641ZM4.13574 19.4092L11.2744 13.6152C11.2744 12.2207 10.9092 11.2191 10.1787 10.6104C9.45931 10.0016 8.63477 9.69727 7.70508 9.69727C6.63151 9.69727 5.76823 10.0348 5.11523 10.71C4.46224 11.3851 4.13574 12.348 4.13574 13.5986V19.4092ZM20.4053 26.6641V1.76172L23.5596 0.267578H23.7256V14.5781L32.5078 7.07422H32.6738L34.168 8.41895L29.9678 11.9883C30.7868 12.2539 31.5062 12.6302 32.126 13.1172C33.4984 14.224 34.1846 15.8675 34.1846 18.0479V25.1699L31.0303 26.6641H30.8643V18.0479C30.8643 16.7197 30.5046 15.7236 29.7852 15.0596C29.1211 14.4508 28.291 14.1465 27.2949 14.1465C26.2324 14.1465 25.3691 14.484 24.7051 15.1592C24.0521 15.8343 23.7256 16.7972 23.7256 18.0479V25.1699L20.5713 26.6641H20.4053Z" fill="#4D4D4D"/>
<path d="M7.70508 26.6641L7.63646 27.6617L8.01599 27.6878L8.31691 27.4551L7.70508 26.6641ZM2.87402 25.0703L2.23874 25.8426L2.24286 25.846L2.87402 25.0703ZM0.81543 12.4033L0.203603 11.6123L-0.18457 11.9126V12.4033H0.81543ZM7.70508 7.07422L7.7737 6.07658L7.39417 6.05047L7.09325 6.28323L7.70508 7.07422ZM12.5361 8.66797L13.1677 7.89262L13.1673 7.89232L12.5361 8.66797ZM14.5947 13.5986L15.2233 14.3764L15.5947 14.0762V13.5986H14.5947ZM4.38477 21.8496L3.75622 21.0718L3.20291 21.519L3.44388 22.1883L4.38477 21.8496ZM5.21484 23.1279L5.86079 22.3645L5.85971 22.3636L5.21484 23.1279ZM10.2949 23.0283L10.9466 23.7868L10.9489 23.7849L10.2949 23.0283ZM11.2744 20.1396L10.8463 19.2359L10.2744 19.5068V20.1396H11.2744ZM14.4287 18.6455V17.6455H14.2038L14.0006 17.7418L14.4287 18.6455ZM14.5947 18.6455H15.5947V17.6455H14.5947V18.6455ZM14.5947 21.335L15.2066 22.126L15.5947 21.8257V21.335H14.5947ZM4.13574 19.4092H3.13574V21.5087L4.76593 20.1856L4.13574 19.4092ZM11.2744 13.6152L11.9046 14.3917L12.2744 14.0915V13.6152H11.2744ZM10.1787 10.6104L9.53275 11.3738L9.53853 11.3786L10.1787 10.6104ZM7.7737 25.6664C5.80084 25.5307 4.41754 25.0371 3.50519 24.2947L2.24286 25.846C3.58832 26.9408 5.42572 27.5096 7.63646 27.6617L7.7737 25.6664ZM3.50929 24.298C2.41734 23.3998 1.81543 22.0695 1.81543 20.1396H-0.18457C-0.18457 22.5262 0.585915 24.483 2.23875 25.8426L3.50929 24.298ZM1.81543 20.1396V12.4033H-0.18457V20.1396H1.81543ZM1.42726 13.1943L8.31691 7.86521L7.09325 6.28323L0.203603 11.6123L1.42726 13.1943ZM7.63646 8.07186C9.60931 8.20756 10.9926 8.70121 11.905 9.44362L13.1673 7.89232C11.8218 6.79749 9.98444 6.22864 7.7737 6.07658L7.63646 8.07186ZM11.9046 9.44332C12.9916 10.3287 13.5947 11.6555 13.5947 13.5986H15.5947C15.5947 11.2033 14.8255 9.24294 13.1677 7.89262L11.9046 9.44332ZM13.9662 12.8209L3.75622 21.0718L5.01331 22.6274L15.2233 14.3764L13.9662 12.8209ZM3.44388 22.1883C3.68688 22.8633 4.04985 23.4534 4.56997 23.8922L5.85971 22.3636C5.6715 22.2048 5.48109 21.9427 5.32565 21.5109L3.44388 22.1883ZM4.5689 23.8913C5.46376 24.6485 6.51014 25.041 7.67188 25.041V23.041C6.99637 23.041 6.40473 22.8248 5.86079 22.3645L4.5689 23.8913ZM7.67188 25.041C8.89279 25.041 9.9943 24.605 10.9466 23.7868L9.64325 22.2698C9.02392 22.8019 8.37674 23.041 7.67188 23.041V25.041ZM10.9489 23.7849C11.922 22.9437 12.2744 21.6253 12.2744 20.1396H10.2744C10.2744 21.3766 9.9738 21.9841 9.64097 22.2718L10.9489 23.7849ZM11.7025 21.0434L14.8568 19.5492L14.0006 17.7418L10.8463 19.2359L11.7025 21.0434ZM14.4287 19.6455H14.5947V17.6455H14.4287V19.6455ZM13.5947 18.6455V21.335H15.5947V18.6455H13.5947ZM13.9829 20.544L7.09325 25.8731L8.31691 27.4551L15.2066 22.126L13.9829 20.544ZM4.76593 20.1856L11.9046 14.3917L10.6442 12.8388L3.50556 18.6327L4.76593 20.1856ZM12.2744 13.6152C12.2744 12.0661 11.8678 10.7162 10.8189 9.84213L9.53853 11.3786C9.9506 11.722 10.2744 12.3753 10.2744 13.6152H12.2744ZM10.8247 9.84697C9.9274 9.08775 8.8748 8.69727 7.70508 8.69727V10.6973C8.39473 10.6973 8.99122 10.9155 9.53277 11.3737L10.8247 9.84697ZM7.70508 8.69727C6.40284 8.69727 5.26537 9.11636 4.39644 10.0147L5.83403 11.4052C6.27109 10.9533 6.86018 10.6973 7.70508 10.6973V8.69727ZM4.39644 10.0147C3.50974 10.9315 3.13574 12.177 3.13574 13.5986H5.13574C5.13574 12.519 5.41474 11.8387 5.83403 11.4052L4.39644 10.0147ZM3.13574 13.5986V19.4092H5.13574V13.5986H3.13574ZM20.4053 26.6641H19.4053V27.6641H20.4053V26.6641ZM20.4053 1.76172L19.9772 0.857981L19.4053 1.12889V1.76172H20.4053ZM23.5596 0.267578V-0.732422H23.3347L23.1315 -0.63616L23.5596 0.267578ZM23.7256 0.267578H24.7256V-0.732422H23.7256V0.267578ZM23.7256 14.5781H22.7256V16.7479L24.3752 15.3384L23.7256 14.5781ZM32.5078 7.07422V6.07422H32.1388L31.8582 6.31395L32.5078 7.07422ZM32.6738 7.07422L33.3428 6.33092L33.0576 6.07422H32.6738V7.07422ZM34.168 8.41895L34.8155 9.18096L35.6868 8.44054L34.8369 7.67565L34.168 8.41895ZM29.9678 11.9883L29.3202 11.2263L27.9547 12.3867L29.6593 12.9395L29.9678 11.9883ZM32.126 13.1172L32.7538 12.3387L32.7438 12.3309L32.126 13.1172ZM34.1846 25.1699L34.6127 26.0737L35.1846 25.8028V25.1699H34.1846ZM31.0303 26.6641V27.6641H31.2551L31.4584 27.5678L31.0303 26.6641ZM30.8643 26.6641H29.8643V27.6641H30.8643V26.6641ZM29.7852 15.0596L30.4634 14.3248L30.4609 14.3224L29.7852 15.0596ZM24.7051 15.1592L23.9921 14.4579L23.9863 14.464L24.7051 15.1592ZM23.7256 25.1699L24.1537 26.0737L24.7256 25.8028V25.1699H23.7256ZM20.5713 26.6641V27.6641H20.7962L20.9994 27.5678L20.5713 26.6641ZM21.4053 26.6641V1.76172H19.4053V26.6641H21.4053ZM20.8334 2.66546L23.9877 1.17132L23.1315 -0.63616L19.9772 0.857981L20.8334 2.66546ZM23.5596 1.26758H23.7256V-0.732422H23.5596V1.26758ZM22.7256 0.267578V14.5781H24.7256V0.267578H22.7256ZM24.3752 15.3384L33.1574 7.83449L31.8582 6.31395L23.076 13.8179L24.3752 15.3384ZM32.5078 8.07422H32.6738V6.07422H32.5078V8.07422ZM32.0049 7.81751L33.499 9.16224L34.8369 7.67565L33.3428 6.33092L32.0049 7.81751ZM33.5204 7.65693L29.3202 11.2263L30.6153 12.7503L34.8155 9.18096L33.5204 7.65693ZM29.6593 12.9395C30.3766 13.1722 30.9891 13.4957 31.5082 13.9035L32.7438 12.3309C32.0232 11.7647 31.197 11.3357 30.2763 11.0371L29.6593 12.9395ZM31.4982 13.8956C32.5802 14.7681 33.1846 16.0913 33.1846 18.0479H35.1846C35.1846 15.6437 34.4166 13.6798 32.7537 12.3388L31.4982 13.8956ZM33.1846 18.0479V25.1699H35.1846V18.0479H33.1846ZM33.7565 24.2662L30.6022 25.7603L31.4584 27.5678L34.6127 26.0737L33.7565 24.2662ZM31.0303 25.6641H30.8643V27.6641H31.0303V25.6641ZM31.8643 26.6641V18.0479H29.8643V26.6641H31.8643ZM31.8643 18.0479C31.8643 16.5441 31.4533 15.2385 30.4634 14.3248L29.1069 15.7944C29.5558 16.2088 29.8643 16.8953 29.8643 18.0479H31.8643ZM30.4609 14.3224C29.5923 13.5262 28.5126 13.1465 27.2949 13.1465V15.1465C28.0695 15.1465 28.6499 15.3755 29.1094 15.7967L30.4609 14.3224ZM27.2949 13.1465C26.0002 13.1465 24.8679 13.5676 23.9922 14.4579L25.418 15.8604C25.8704 15.4005 26.4647 15.1465 27.2949 15.1465V13.1465ZM23.9863 14.464C23.0996 15.3807 22.7256 16.6262 22.7256 18.0479H24.7256C24.7256 16.9682 25.0046 16.2879 25.4239 15.8544L23.9863 14.464ZM22.7256 18.0479V25.1699H24.7256V18.0479H22.7256ZM23.2975 24.2662L20.1432 25.7603L20.9994 27.5678L24.1537 26.0737L23.2975 24.2662ZM20.5713 25.6641H20.4053V27.6641H20.5713V25.6641Z" fill="#666666" mask="url(#path-1-inside-1_2001_2)"/>
</svg>
